# AST/ASF file generated using VICON BodyLanguage
# -----------------------------------------------
:version 1.10
:name VICON
:units
  mass 1.0
  length 0.45
  angle deg
:documentation
   .ast/.asf automatically generated from VICON data using
   VICON BodyBuilder and BodyLanguage model FoxedUp or BRILLIANT.MOD
:root
   order TX TY TZ RX RY RZ
   axis XYZ
   position 0 0 0  
   orientation 0 0 0 
:bonedata
  begin
     id 1 
     name lhipjoint
     direction 0.660183 -0.676772 0.325788 
     length 2.75133 
     axis 0 0 0  XYZ
  end
  begin
     id 2 
     name lfemur
     direction 0.34202 -0.939693 0  
     length 7.70317  
     axis 0 0 20  XYZ
    dof rx ry rz
    limits (-160.0 20.0)
           (-70.0 70.0)
           (-60.0 70.0)
  end
  begin
     id 3 
     name ltibia
     direction 0.342105 -0.939662 0   
     length 7.18701   
     axis 0 0 20   XYZ
    dof rx
    limits (-10.0 170.0)
  end
  begin
     id 4 
     name lfoot
     direction 0.14163 -0.389126 0.910232   
     length 2.41719   
     axis -90 7.62852e-016 20   XYZ
    dof rx rz
    limits (-45.0 90.0)
           (-70.0 20.0)
  end
  begin
     id 5 
     name ltoes
     direction 1.53533e-011 -4.21926e-011 1   
     length 1.18611   
     axis -90 7.62852e-016 20   XYZ
    dof rx
    limits (-90.0 20.0)
  end
  begin
     id 6 
     name rhipjoint
     direction -0.6658 -0.67229 0.323631   
     length 2.76968  
     axis 0 0 0  XYZ 
  end
  begin
     id 7 
     name rfemur
     direction -0.34202 -0.939693 0   
     length 7.92547   
     axis 0 0 -20   XYZ
    dof rx ry rz
    limits (-160.0 20.0)
           (-70.0 70.0)
           (-70.0 60.0)
  end
  begin
     id 8 
     name rtibia
     direction -0.342022 -0.939692 0   
     length 7.22641   
     axis 0 0 -20   XYZ
    dof rx
    limits (-10.0 170.0)
 end
 begin
     id 9 
     name rfoot
     direction -0.105675 -0.29034 0.951071   
     length 2.48149  
     axis -90 -7.62852e-016 -20   XYZ
    dof rx rz
    limits (-45.0 90.0)
           (-20.0 70.0)
  end
  begin
     id 10 
     name rtoes
     direction -1.5349e-011 -4.21859e-011 1   
     length 1.23343   
     axis -90 -7.62852e-016 -20   XYZ
    dof rx
    limits (-90.0 20.0)
  end
  begin
     id 11 
     name lowerback
     direction 0.0104173 0.993624 -0.112266   
     length 2.00527   
     axis 0 0 0   XYZ
    dof rx ry rz
    limits (-20.0 45.0)
           (-30.0 30.0)
           (-30.0 30.0)
  end
  begin
     id 12 
     name upperback
     direction 0.00733149 0.999856 -0.0152913   
     length 2.01385   
     axis 0 0 0   XYZ
    dof rx ry rz
    limits (-20.0 45.0)
           (-30.0 30.0)
           (-30.0 30.0)
  end
  begin
     id 13 
     name thorax
     direction 0.0026304 0.999318 0.036841   
     length 2.03734   
     axis 0 0 0   XYZ
    dof rx ry rz
    limits (-20.0 45.0)
           (-30.0 30.0)
           (-30.0 30.0)
  end
  begin
     id 14 
     name lowerneck
     direction 0.0293154 0.998757 0.0403082   
     length 1.65303   
     axis 0 0 0   XYZ
    dof rx ry rz
    limits (-20.0 45.0)
           (-30.0 30.0)
           (-30.0 30.0)
  end
  begin
     id 15 
     name upperneck
     direction -0.0376619 0.998184 -0.0470083   
     length 1.60926   
     axis 0 0 0   XYZ
    dof rx ry rz
    limits (-20.0 45.0)
           (-30.0 30.0)
           (-30.0 30.0)
  end
  begin
     id 16
     name head
     direction -0.0170133 0.999635 -0.0209778  
     length 1.73625  
     axis 0 0 0   XYZ
    dof rx ry rz
    limits (-20.0 45.0)
           (-30.0 30.0)
           (-30.0 30.0)
  end
  begin
     id 17 
     name lclavicle
     direction 0.919857 0.39181 -0.0186333  
     length 3.75313  
     axis 0 0 0   XYZ
    dof ry rz
    limits (-20.0 10.0)
           (0.0 20.0)
  end
  begin
     id 18 
     name lhumerus
     direction 1 -4.48988e-011 1.44029e-027   
     length 5.49313   
     axis 180 -30 -90   XYZ
    dof rx ry rz
    limits (-60.0 90.0)
           (-90.0 90.0)
           (-90.0 90.0)
  end
  begin
     id 19
     name lradius
     direction 1 -4.48924e-011 7.46281e-027   
     length 3.29037   
     axis 180 -30 -90   XYZ
    dof rx
    limits (-10.0 170.0)
  end
  begin
     id 20
     name lwrist
     direction 1 -4.48955e-011 2.19879e-026   
     length 1.64519   
     axis -1.34358e-014 90 90   XYZ
    dof ry
    limits (-180.0 0.0)
 end
  begin
     id 21 
     name lhand
     direction 1 -4.48978e-011 4.39747e-026   
     length 0.729656   
     axis -2.80598e-014 90 90   XYZ
    dof rx rz
    limits (-90.0 90.0)
           (-45.0 45.0)
  end
  begin
     id 22 
     name lfingers
     direction 1 -4.49071e-011 8.79411e-026   
     length 0.588268   
     axis -5.61193e-014 90 90   XYZ
    dof rx
    limits (0.0 90.0)
  end
  begin
     id 23
     name lthumb
     direction 0.707107 -6.34817e-011 0.707107   
     length 0.844638   
     axis -90 45 -9.86923e-015   XYZ
    dof rx rz
    limits (-45.0 45.0)
           (-45.0 45.0)
  end
  begin
     id 24 
     name rclavicle
     direction -0.919898 0.388279 0.0550233   
     length 3.7171  
     axis 0 0 0   XYZ 
    dof ry rz
    limits (-10.0 20.0)
           (-20.0 0.0)
  end
  begin
     id 25 
     name rhumerus
     direction -1 -4.48968e-011 9.98372e-028  
     length 5.23684   
     axis 180 30 90   XYZ
    dof rx ry rz
    limits (-90.0 60.0)
           (-90.0 90.0)
           (-90.0 90.0)
  end
  begin
     id 26 
     name rradius
     direction -1 -4.48956e-011 1.01023e-026   
     length 3.38251   
     axis 180 30 90   XYZ
    dof rx
    limits (-10.0 170.0)
  end
  begin
     id 27 
     name rwrist
     direction -1 -4.4892e-011 2.19886e-026   
     length 1.69126   
     axis -1.34358e-014 -90 -90   XYZ
    dof ry
    limits (-180.0 0.0)
  end
  begin
     id 28
     name rhand
     direction -1 -4.49024e-011 4.39727e-026   
     length 0.691454   
     axis -2.80598e-014 -90 -90   XYZ
    dof rx rz
    limits (-90.0 90.0)
           (-45.0 45.0)
  end
  begin
     id 29
     name rfingers
     direction -1 -4.49097e-011 8.79388e-026   
     length 0.557468   
     axis -5.61193e-014 -90 -90   XYZ
    dof rx
    limits (0.0 90.0)
  end
  begin
     id 30
     name rthumb
     direction -0.707107 -6.34938e-011 0.707107   
     length 0.800416   
     axis -90 -45 9.86923e-015   XYZ
    dof rx rz
    limits (-45.0 45.0)
           (-45.0 45.0)
  end
:hierarchy
  begin
    root lhipjoint rhipjoint lowerback
    lhipjoint lfemur
    lfemur ltibia
    ltibia lfoot
    lfoot ltoes
    rhipjoint rfemur
    rfemur rtibia
    rtibia rfoot
    rfoot rtoes
    lowerback upperback
    upperback thorax
    thorax lowerneck lclavicle rclavicle
    lowerneck upperneck
    upperneck head
    lclavicle lhumerus
    lhumerus lradius
    lradius lwrist
    lwrist lhand lthumb
    lhand lfingers
    rclavicle rhumerus
    rhumerus rradius
    rradius rwrist
    rwrist rhand rthumb
    rhand rfingers
  end

#!OML:ASF H:\BabyWalks\Project 1\Capture day 1\Session 1\baby.ASF
:FULLY-SPECIFIED
:DEGREES
79
root -32.1912 17.7877 -22.6901 -8.86836 75.8363 -15.0961
lowerback 13.9755 0.295496 -0.653361
upperback 9.04729 0.773872 3.20955
thorax 1.65985 0.458749 3.63803
lowerneck -1.4248 3.25871 2.0831
upperneck -7.23296 4.14729 -6.0447
head -1.85817 2.19665 -2.33167
rclavicle -1.98785e-016 -3.49861e-014
rhumerus -52.6489 27.9144 -90.3155
rradius 48.5029
rwrist 1.05101
rhand -11.6464 -15.2093
rfingers 7.12502
rthumb 14.3977 -44.69
lclavicle -1.98785e-016 -3.49861e-014
lhumerus -47.96 -5.41276 85.2877
lradius 48.7884
lwrist -0.799987
lhand 1.93302 10.8758
lfingers 7.12502
lthumb 27.4405 38.8972
rfemur 5.19622 14.4202 24.4936
rtibia 8.29803
rfoot -17.1136 -5.22887
rtoes -4.88941
lfemur -24.4544 -5.3505 -11.0752
ltibia 35.1041
lfoot -14.8793 -16.6788
ltoes 14.989
80
root -32.1949 17.7872 -22.6899 -8.86897 75.8515 -15.0902
lowerback 13.983 0.29954 -0.663578
upperback 9.03355 0.77761 3.20672
thorax 1.64087 0.460293 3.64011
lowerneck -1.40494 3.25543 2.10394
upperneck -7.22412 4.14254 -6.054
head -1.8585 2.19389 -2.33874
rclavicle -1.5704e-014 3.45885e-014
rhumerus -52.69 27.891 -90.3362
rradius 48.5528
rwrist 0.735448
rhand -11.6869 -15.2814
rfingers 7.12502
rthumb 14.3587 -44.7648
lclavicle -1.5704e-014 3.45885e-014
lhumerus -47.979 -5.43767 85.2792
lradius 48.7844
lwrist -0.807077
lhand 1.97371 10.8895
lfingers 7.12502
lthumb 27.4795 38.9047
rfemur 5.18888 14.4045 24.4957
rtibia 8.30715
rfoot -17.079 -5.24854
rtoes -5.0723
lfemur -24.4544 -5.36072 -11.0759
ltibia 35.0874
lfoot -14.8807 -16.6847
ltoes 14.9595
81
root -32.1987 17.7868 -22.6897 -8.86284 75.8682 -15.0774
lowerback 13.9924 0.30231 -0.674601
upperback 9.01943 0.779599 3.20317
thorax 1.62066 0.460962 3.64207
lowerneck -1.38598 3.25298 2.1244
upperneck -7.21688 4.13883 -6.06447
head -1.85914 2.19172 -2.34616
rclavicle 1.33186e-014 1.90833e-014
rhumerus -52.7325 27.8725 -90.3592
rradius 48.6053
rwrist 0.441875
rhand -11.7505 -15.3445
rfingers 7.12502
rthumb 14.2974 -44.8322
lclavicle 1.33186e-014 1.90833e-014
lhumerus -48.0027 -5.46057 85.2706
lradius 48.7866
lwrist -0.813793
lhand 2.00623 10.9013
lfingers 7.12502
lthumb 27.5105 38.9116
rfemur 5.17823 14.3875 24.4963
rtibia 8.32287
rfoot -17.0499 -5.27287
rtoes -5.2736
lfemur -24.455 -5.37405 -11.0784
ltibia 35.0692
lfoot -14.8757 -16.7069
ltoes 14.9352
82
root -32.2026 17.7861 -22.6894 -8.85133 75.8857 -15.0571
lowerback 14.0059 0.30458 -0.687728
upperback 9.00588 0.780808 3.19897
thorax 1.59888 0.461218 3.64463
lowerneck -1.36844 3.25019 2.14469
upperneck -7.21075 4.13464 -6.07546
head -1.8599 2.18934 -2.35371
rclavicle -1.80894e-014 -2.82274e-014
rhumerus -52.7777 27.8597 -90.3855
rradius 48.6618
rwrist 0.184534
rhand -11.8389 -15.3964
rfingers 7.12502
rthumb 14.2122 -44.8902
lclavicle -1.80894e-014 -2.82274e-014
lhumerus -48.0277 -5.47955 85.2607
lradius 48.79
lwrist -0.820501
lhand 2.02775 10.9039
lfingers 7.12502
lthumb 27.5311 38.9108
rfemur 5.16935 14.3697 24.4968
rtibia 8.34069
rfoot -17.0266 -5.30243
rtoes -5.47569
lfemur -24.4539 -5.39175 -11.082
ltibia 35.0508
lfoot -14.8812 -16.7238
ltoes 14.842
83
root -32.2067 17.7853 -22.6892 -8.82884 75.9055 -15.0241
lowerback 14.025 0.305458 -0.701833
upperback 8.99214 0.780168 3.19297
thorax 1.57415 0.460611 3.64604
lowerneck -1.3538 3.24787 2.16293
upperneck -7.20544 4.13114 -6.08502
head -1.86045 2.18732 -2.36037
rclavicle -2.72335e-014 -2.5842e-014
rhumerus -52.8242 27.8512 -90.4157
rradius 48.7182
rwrist -0.0261605
rhand -11.9525 -15.4372
rfingers 7.12502
rthumb 14.1028 -44.9387
lclavicle -2.72335e-014 -2.5842e-014
lhumerus -48.0568 -5.49612 85.2495
lradius 48.7982
lwrist -0.824962
lhand 2.04137 10.8979
lfingers 7.12502
lthumb 27.5442 38.9028
rfemur 5.16339 14.3499 24.4946
rtibia 8.35475
rfoot -17.0063 -5.33606
rtoes -5.6845
lfemur -24.4531 -5.41524 -11.0892
ltibia 35.0334
lfoot -14.9093 -16.7273
ltoes 14.6568
84
root -32.2109 17.7843 -22.6889 -8.80928 75.927 -14.9923
lowerback 14.0483 0.305355 -0.714644
upperback 8.97872 0.778501 3.18675
thorax 1.54755 0.459607 3.6466
lowerneck -1.34153 3.24623 2.17969
upperneck -7.20149 4.12858 -6.09346
head -1.86102 2.1858 -2.36637
rclavicle -1.47101e-014 7.55382e-015
rhumerus -52.8725 27.8487 -90.45
rradius 48.7766
rwrist -0.196098
rhand -12.088 -15.4681
rfingers 7.12502
rthumb 13.9722 -44.9786
lclavicle -1.47101e-014 7.55382e-015
lhumerus -48.0865 -5.50902 85.2373
lradius 48.8073
lwrist -0.828989
lhand 2.04771 10.8825
lfingers 7.12502
lthumb 27.5502 38.8864
rfemur 5.16272 14.328 24.4942
rtibia 8.36248
rfoot -16.9894 -5.3736
rtoes -5.86615
lfemur -24.4526 -5.44229 -11.0962
ltibia 35.0181
lfoot -14.9224 -16.7235
ltoes 14.505
85
root -32.2152 17.7831 -22.6886 -8.79279 75.9507 -14.9651
lowerback 14.072 0.303828 -0.724819
upperback 8.96523 0.775261 3.18007
thorax 1.5208 0.457945 3.64536
lowerneck -1.33298 3.24497 2.19426
upperneck -7.19761 4.12668 -6.09951
head -1.861 2.18458 -2.37109
rclavicle 6.16232e-015 5.1684e-015
rhumerus -52.9213 27.8512 -90.4874
rradius 48.8374
rwrist -0.332899
rhand -12.236 -15.4883
rfingers 7.12502
rthumb 13.8296 -45.0085
lclavicle 6.16232e-015 5.1684e-015
lhumerus -48.1176 -5.51912 85.2238
lradius 48.8181
lwrist -0.828683
lhand 2.04738 10.8614
lfingers 7.12502
lthumb 27.5499 38.8654
rfemur 5.1664 14.3038 24.4965
rtibia 8.35975
rfoot -16.971 -5.41954
rtoes -6.04809
lfemur -24.4554 -5.47373 -11.1012
ltibia 35.0057
lfoot -14.925 -16.7179
ltoes 14.4135
86
root -32.2194 17.7817 -22.6883 -8.77882 75.9748 -14.9437
lowerback 14.0954 0.301996 -0.731968
upperback 8.95046 0.771888 3.17328
thorax 1.49291 0.456338 3.64231
lowerneck -1.32511 3.24457 2.20918
upperneck -7.1958 4.12591 -6.10539
head -1.86149 2.18395 -2.37586
rclavicle 1.21259e-014 -2.14687e-014
rhumerus -52.9723 27.8561 -90.5271
rradius 48.9019
rwrist -0.442947
rhand -12.3916 -15.4999
rfingers 7.12502
rthumb 13.6796 -45.0303
lclavicle 1.21259e-014 -2.14687e-014
lhumerus -48.1477 -5.52653 85.2095
lradius 48.826
lwrist -0.825627
lhand 2.04405 10.8363
lfingers 7.12502
lthumb 27.5467 38.8408
rfemur 5.17314 14.2788 24.5011
rtibia 8.34261
rfoot -16.9479 -5.47116
rtoes -6.22964
lfemur -24.4641 -5.50583 -11.1041
ltibia 34.997
lfoot -14.95 -16.7018
ltoes 14.2856
87
root -32.2238 17.78 -22.6879 -8.76575 76.0014 -14.9281
lowerback 14.1164 0.300004 -0.736462
upperback 8.93458 0.76851 3.16663
thorax 1.46509 0.45481 3.6379
lowerneck -1.31971 3.24387 2.22469
upperneck -7.19394 4.12476 -6.11131
head -1.86153 2.1831 -2.38068
rclavicle 2.40529e-014 2.50469e-014
rhumerus -53.0245 27.863 -90.5678
rradius 48.9699
rwrist -0.535068
rhand -12.5489 -15.5069
rfingers 7.12502
rthumb 13.528 -45.0475
lclavicle 2.40529e-014 2.50469e-014
lhumerus -48.1771 -5.53346 85.1958
lradius 48.8345
lwrist -0.822074
lhand 2.03976 10.8095
lfingers 7.12502
lthumb 27.5426 38.8146
rfemur 5.1822 14.2514 24.507
rtibia 8.31064
rfoot -16.9208 -5.52832
rtoes -6.40676
lfemur -24.4805 -5.54011 -11.1049
ltibia 34.9924
lfoot -14.9892 -16.6936
ltoes 14.1681
88
root -32.2282 17.7783 -22.6875 -8.74689 76.03 -14.9112
lowerback 14.1363 0.298219 -0.739094
upperback 8.91772 0.765534 3.15917
thorax 1.43681 0.453561 3.63152
lowerneck -1.31607 3.24303 2.24332
upperneck -7.19366 4.1233 -6.1194
head -1.86169 2.18208 -2.38677
rclavicle -2.20651e-014 3.81667e-014
rhumerus -53.0762 27.8702 -90.609
rradius 49.0412
rwrist -0.612916
rhand -12.6972 -15.5116
rfingers 7.12502
rthumb 13.3851 -45.0616
lclavicle -2.20651e-014 3.81667e-014
lhumerus -48.203 -5.54094 85.1827
lradius 48.84
lwrist -0.817974
lhand 2.03364 10.7858
lfingers 7.12502
lthumb 27.5368 38.7919
rfemur 5.19285 14.2223 24.512
rtibia 8.26372
rfoot -16.8895 -5.59085
rtoes -6.59104
lfemur -24.5056 -5.57465 -11.106
ltibia 34.9929
lfoot -15.0426 -16.6732
ltoes 14.0309
